<svg xmlns="http://www.w3.org/2000/svg" viewBox="0 0 635.42 131.37"><defs><style>.cls-1,.cls-3{fill:#fff;}.cls-1,.cls-2{fill-rule:evenodd;}.cls-2{fill:#e0e0e0;}</style></defs><g id="Layer_2" data-name="Layer 2"><g id="Page_6" data-name="Page 6"><path class="cls-1" d="M100.61,25.52H75l-45.65,104H0C19.38,86.43,38.13,43.14,57.41,0L90,.14q5.72,12.68,11.37,25.38Z"/><path class="cls-2" d="M94.69,72.75h26.94q13.16,28.36,26.22,56.78H118.29L102.75,96.81H69.24c-4.94-8-9.94-16-14.91-24.06Z"/><path class="cls-3" d="M382.31,57.72a22.05,22.05,0,0,1,13.17,4.09q5.68,4.09,7.82,12.28H360.43A19.92,19.92,0,0,1,368.7,62a23.92,23.92,0,0,1,13.61-4.27m45,24.91Q426.6,62.71,413.53,50a43.25,43.25,0,0,0-31.22-12.72q-19.38,0-32.64,13.26T336.42,84.41q0,20.63,13.16,33.79T382,131.37q14.94,0,26.15-6.94T425,104l-21-4.45q-6.94,11.73-22.06,11.74a20.55,20.55,0,0,1-14.32-5.61q-6.13-5.59-7.92-15h67.6Z"/><path class="cls-3" d="M491.09,37.26q-17.26,0-27.93,10.68v-8H439.68V128.7h23.48V89.39q0-30.6,22.06-30.6a16.38,16.38,0,0,1,13.07,5.69q4.89,5.7,4.89,15.12v49.1h23.48V74.62q0-16.55-9.78-26.95T491.09,37.26"/><path class="cls-3" d="M586.68,110.91q-10.84,0-17.87-7.2t-7-19.3q0-12.1,7-19.39t17.87-7.3a24.45,24.45,0,0,1,17.61,7.48q7.65,7.45,7.65,19.21t-7.65,19.12a24.63,24.63,0,0,1-17.61,7.38M635.42.62H611.94V47.05q-11.73-9.78-29.35-9.79-17.43,0-30.51,13.43T539,84.41q0,20.28,13,33.61t30.59,13.35q17.43,0,29.35-9.61v6.94h23.48Z"/><path class="cls-1" d="M235.77,84.41q0,20.63,13.78,33.79t33.71,13.17a46.67,46.67,0,0,0,28.37-9.07,41.09,41.09,0,0,0,15-20.34l-22.05-5.61q-6.19,13.5-21.3,13.49-11,0-17.87-7t-6.85-18.41q0-11.4,6.85-18.42t17.87-7q15.11,0,21.3,13.49l22.05-5.6a41,41,0,0,0-15-20.34,46.68,46.68,0,0,0-28.37-9.08q-19.92,0-33.71,13.17t-13.78,33.8"/><path class="cls-1" d="M156.69,82.8q6.5,6.58,18.59,9.08l18.15,3.73q9.78,2.13,9.78,8a7.44,7.44,0,0,1-3.73,6.4q-3.73,2.49-10.14,2.49-15.36,0-18-10.2l-22.9,8.23a24.6,24.6,0,0,0,11.68,14.33q11.21,6.49,27,6.5,17.79,0,28.37-7.65t10.59-22.06a23.1,23.1,0,0,0-6-15.92q-6-6.67-17.34-9.16L181.69,72q-8-1.77-8-7.47a8,8,0,0,1,2.85-6.13c1.89-1.72,5-2.58,9.25-2.58q7.11,0,11.65,3.38a12.65,12.65,0,0,1,5,7.42l21.36-7.69a30.06,30.06,0,0,0-11.4-14.32q-10.4-7.29-25.88-7.3-16.55,0-26.42,8.19a26.22,26.22,0,0,0-9.87,21.17,22.17,22.17,0,0,0,6.49,16.18"/><polygon class="cls-1" points="102.75 96.81 121.63 72.75 94.69 72.75 54.33 72.75 69.24 96.81 102.75 96.81"/></g></g></svg>